<svg width="64" height="64" viewBox="0 0 64 64" fill="none" xmlns="http://www.w3.org/2000/svg">
<rect width="64" height="64" fill="#0278ED"/>
<g clip-path="url(#clip0_1_103)">
<path d="M43.9956 22.6969C43.9928 21.3498 43.2113 20.6722 41.8298 20.7073C41.361 20.7181 41.2577 20.8963 41.2689 21.2985C41.2884 21.9788 41.2996 22.6618 41.2633 23.3422C41.2075 24.4436 40.5321 25.1293 39.4045 25.2157C38.8073 25.2616 38.2016 25.2589 37.6072 25.2184C36.3959 25.1374 35.7177 24.4274 35.6898 23.2504C35.6759 22.5944 35.6675 21.9383 35.6926 21.2823C35.7094 20.8612 35.5614 20.71 35.1149 20.7127C33.0273 20.7316 30.9397 20.7316 28.8549 20.7127C28.3804 20.7073 28.2883 20.9044 28.3023 21.3012C28.3246 21.9815 28.3218 22.6645 28.3051 23.3449C28.2799 24.3734 27.6659 25.0726 26.611 25.1887C25.9663 25.2616 25.3076 25.2562 24.6573 25.2184C23.4712 25.1509 22.8098 24.4706 22.7679 23.3152C22.7456 22.6348 22.7428 21.9518 22.7679 21.2715C22.7846 20.8423 22.6116 20.7181 22.1762 20.71C20.7556 20.6803 20.0021 21.3687 20.0021 22.7725C19.9993 29.4865 19.9993 36.1978 20.0021 42.9118C20.0021 44.3588 20.6468 44.9933 22.1399 44.996C28.7153 45.0014 35.2879 45.0014 41.8633 44.996C43.3676 44.996 43.9956 44.375 43.9956 42.9145C44.0012 39.5589 43.9956 36.2005 43.9956 32.8449C43.9984 29.4595 44.004 26.0769 43.9956 22.6969ZM22.7344 27.4699C22.7316 27.1189 22.8879 26.9786 23.2507 26.9786C24.7857 26.9867 26.3207 26.9867 27.8529 26.9813C28.1823 26.9813 28.3106 27.1135 28.3079 27.4348C28.2967 28.6415 28.2939 29.851 28.3106 31.0577C28.3162 31.4573 28.093 31.5032 27.7692 31.5005C27.0157 31.4924 26.2621 31.4978 25.5058 31.4978C24.7522 31.4978 23.9959 31.487 23.2423 31.5032C22.8767 31.5113 22.7288 31.3763 22.7316 31.0199C22.7456 29.8348 22.7428 28.6523 22.7344 27.4699ZM28.3134 41.805C28.319 42.191 28.1878 42.3449 27.7804 42.3395C26.2984 42.326 24.8164 42.326 23.3344 42.3395C22.9019 42.3449 22.726 42.1991 22.7316 41.7726C22.7484 40.6144 22.7456 39.459 22.7344 38.3008C22.7316 37.9472 22.8767 37.8068 23.2423 37.8149C23.9959 37.8311 24.7494 37.8203 25.5058 37.8203C26.2593 37.8203 27.0157 37.8338 27.7692 37.8149C28.1655 37.8041 28.3218 37.9337 28.3162 38.3332C28.2939 39.4914 28.2967 40.6495 28.3134 41.805ZM27.6827 36.9321C26.9543 36.9024 26.223 36.924 25.4918 36.924C24.7885 36.924 24.0824 36.9024 23.3791 36.9321C22.9214 36.951 22.7177 36.8295 22.7288 36.3463C22.7539 35.2125 22.7511 34.0759 22.7316 32.9394C22.7232 32.502 22.9074 32.3805 23.3344 32.3859C24.7941 32.4048 26.2565 32.4129 27.7162 32.3832C28.2241 32.3724 28.3246 32.5722 28.3162 33.0069C28.2939 34.1164 28.2855 35.2287 28.319 36.3382C28.3302 36.8187 28.146 36.951 27.6827 36.9321ZM29.7535 26.9813C31.2411 26.9894 32.7287 26.9921 34.2162 26.9785C34.6181 26.9759 34.7716 27.1189 34.766 27.5104C34.7493 28.6712 34.7465 29.8321 34.766 30.9929C34.7716 31.406 34.5818 31.5086 34.1995 31.5005C33.4431 31.4843 32.6868 31.4951 31.9305 31.4951C31.1992 31.4951 30.468 31.4843 29.7396 31.5005C29.3712 31.5086 29.2344 31.3736 29.2372 31.0145C29.2512 29.8294 29.2512 28.6415 29.2372 27.4564C29.2316 27.0838 29.4019 26.9785 29.7535 26.9813ZM29.2344 32.9178C29.2289 32.5344 29.3544 32.3832 29.7703 32.3886C31.2551 32.4075 32.7398 32.4048 34.2274 32.3886C34.6404 32.3832 34.7716 32.5371 34.766 32.9205C34.7521 34.0786 34.7521 35.2395 34.766 36.4003C34.7716 36.7864 34.6349 36.9402 34.2246 36.9294C33.4683 36.9078 32.7147 36.924 31.9584 36.924C31.2551 36.924 30.5517 36.9105 29.8484 36.9294C29.441 36.9429 29.2233 36.8592 29.2344 36.3976C29.2596 35.2395 29.2512 34.0786 29.2344 32.9178ZM34.7716 41.7348C34.7828 42.1991 34.6069 42.3503 34.1353 42.3449C32.7008 42.3233 31.2662 42.3287 29.8289 42.3422C29.4019 42.3476 29.2205 42.2261 29.2316 41.7834C29.2568 40.6468 29.2568 39.513 29.2316 38.3764C29.2233 37.9445 29.3824 37.7987 29.8177 37.8149C30.5462 37.8392 31.2774 37.823 32.0086 37.823C32.7119 37.823 33.418 37.8419 34.1213 37.8149C34.579 37.7987 34.78 37.9229 34.7688 38.4034C34.7409 39.513 34.7437 40.6252 34.7716 41.7348ZM35.6814 27.5158C35.6759 27.1297 35.8154 26.9732 36.2229 26.9786C37.7076 26.9921 39.1896 26.9921 40.6744 26.9786C41.093 26.9759 41.2912 27.1 41.2828 27.5401C41.2633 28.6982 41.2689 29.8564 41.28 31.0145C41.2828 31.3709 41.1405 31.5086 40.7721 31.5005C39.9906 31.487 39.2092 31.4951 38.4305 31.4951C37.7272 31.4951 37.0239 31.4762 36.3234 31.5032C35.8684 31.5194 35.6675 31.3952 35.6814 30.9146C35.7066 29.7835 35.6982 28.6496 35.6814 27.5158ZM41.2773 41.8536C41.28 42.218 41.1014 42.3368 40.7525 42.3368C39.2175 42.3314 37.6797 42.3314 36.1447 42.3368C35.8154 42.3368 35.6814 42.1991 35.6842 41.8806C35.6926 40.6711 35.6954 39.4644 35.6842 38.255C35.6814 37.8527 35.9243 37.8176 36.2396 37.8203C36.9932 37.8257 37.7495 37.823 38.5031 37.823C39.2566 37.823 40.0129 37.8338 40.7665 37.8203C41.1321 37.8122 41.28 37.9472 41.2744 38.3062C41.2661 39.486 41.2661 40.6711 41.2773 41.8536ZM40.6325 36.9294C39.9041 36.9024 39.1757 36.9213 38.4472 36.9213C37.6937 36.9213 36.9374 36.9078 36.1838 36.924C35.8154 36.9321 35.6759 36.7944 35.6814 36.4381C35.6926 35.2557 35.6982 34.0732 35.6787 32.8908C35.6731 32.4777 35.8629 32.3832 36.2452 32.3859C37.7272 32.3994 39.2092 32.4021 40.6911 32.3832C41.1321 32.3778 41.2884 32.5236 41.28 32.9475C41.2605 34.0786 41.2549 35.2125 41.2828 36.3436C41.2968 36.8349 41.0819 36.9456 40.6325 36.9294ZM25.6397 24.2978C26.5859 24.2357 27.3199 23.5068 27.3673 22.5566C27.3896 22.0787 27.3701 21.5982 27.3701 21.1203C27.3701 20.6668 27.3869 20.2133 27.3673 19.7597C27.3227 18.7987 26.6054 18.0752 25.6565 18.005C24.7159 17.9375 23.8647 18.5638 23.7363 19.5222C23.5912 20.5966 23.5968 21.69 23.7335 22.7644C23.8536 23.7228 24.702 24.3572 25.6397 24.2978ZM38.4221 24.3005C39.438 24.3383 40.2585 23.5716 40.3311 22.4891C40.359 22.0625 40.3367 21.6333 40.3367 21.204H40.3339C40.3339 20.7262 40.3646 20.243 40.3283 19.7678C40.2474 18.7312 39.4408 17.9888 38.4528 18.0023C37.462 18.0158 36.6666 18.7771 36.6276 19.8137C36.5941 20.6938 36.5969 21.5793 36.6276 22.4594C36.6611 23.5068 37.4202 24.2627 38.4221 24.3005Z" fill="white"/>
</g>
<defs>
<clipPath id="clip0_1_103">
<rect width="24" height="27" fill="white" transform="translate(20 18)"/>
</clipPath>
</defs>
</svg>
